# xmcd CD database file
#
# Track frame offsets:
#	150
#	43427
#	70345
#	106460
#	127766
#	156837
#	176357
#	195689
#	233691
#
# Disc length: 3409 seconds
#
# Revision: 0
# Processed by: cddbd v1.5.2PL0 Copyright (c) Steve Scherf et al.
# Submitted via: CDex 1.70beta2
#
DISCID=760d4f09
DTITLE=Bob Wilber and Kenny Davern. B.Wilber:sop sax, K.Davern: clar, B. Pizzarelli: guit, D. Frishberg:piano, B. Haggart:bass, Ed Metz Jr: Drums - Reunion at Arbors
DYEAR=1998
DGENRE=Jazz
TTITLE0=cherry
TTITLE1=Sentimental Journey
TTITLE2=Who's sorry now?
TTITLE3=I want a little girl
TTITLE4=The sheik of araby
TTITLE5=Dear sidney
TTITLE6=Sometimes i'm happy
TTITLE7=I'm confessin' that I love you
TTITLE8=Arbors Stomp
EXTD=YEAR: 1998
EXTT0=
EXTT1=
EXTT2=
EXTT3=
EXTT4=
EXTT5=
EXTT6=
EXTT7=
EXTT8=
PLAYORDER=
